<svg viewBox="0 0 24 24" fill="none" xmlns="http://www.w3.org/2000/svg">
  <g clip-path="url(#clip0_2208_2)">
    <path fill-rule="evenodd" clip-rule="evenodd" d="M12 0C18.6274 0 24 5.37258 24 12C24 18.6274 18.6274 24 12 24C5.37258 24 0 18.6274 0 12C1.14598e-07 5.37258 5.37258 1.14538e-07 12 0ZM11.9488 23.7489C11.9659 23.7511 11.9829 23.7533 12 23.7556C12.0171 23.7533 12.0341 23.7511 12.0512 23.7489C12.0341 23.7444 12.017 23.74 12 23.7353C11.983 23.74 11.9659 23.7444 11.9488 23.7489ZM11.219 23.4987C11.1398 23.5258 11.0602 23.5518 10.9802 23.5773C11.0546 23.5936 11.1291 23.6093 11.204 23.6242C11.2848 23.6082 11.3653 23.5911 11.4455 23.5733C11.3697 23.5491 11.2942 23.5242 11.219 23.4987ZM12.781 23.4987C12.7058 23.5242 12.6303 23.5491 12.5545 23.5733C12.6347 23.5911 12.7152 23.6082 12.796 23.6242C12.8708 23.6093 12.9454 23.5936 13.0198 23.5773C12.9398 23.5518 12.8602 23.5256 12.781 23.4987ZM9.57696 23.5156C9.66071 23.5331 9.74482 23.5498 9.82922 23.5656C9.76158 23.5438 9.69416 23.5216 9.62702 23.4987C9.61033 23.5044 9.59367 23.51 9.57696 23.5156ZM14.373 23.4987C14.3058 23.5216 14.2384 23.5438 14.1708 23.5656C14.2552 23.5498 14.3392 23.5331 14.423 23.5156C14.4063 23.51 14.3896 23.5044 14.373 23.4987ZM10.423 23.196C10.3063 23.2451 10.1886 23.2927 10.0701 23.3382C10.187 23.374 10.3046 23.408 10.423 23.4402C10.5414 23.408 10.6591 23.374 10.776 23.3382C10.6574 23.2927 10.5398 23.2451 10.423 23.196ZM13.577 23.196C13.4602 23.2451 13.3426 23.2927 13.224 23.3382C13.3409 23.374 13.4586 23.408 13.577 23.4402C13.6954 23.408 13.813 23.374 13.9299 23.3382C13.8114 23.2927 13.6937 23.2451 13.577 23.196ZM12 23.2024C11.8882 23.2493 11.7755 23.2947 11.662 23.3382C11.774 23.3724 11.8867 23.4051 12 23.436C12.1133 23.4051 12.226 23.3724 12.3379 23.3382C12.2244 23.2947 12.1118 23.2493 12 23.2024ZM8.84604 23.2024C8.78147 23.2296 8.7166 23.256 8.65144 23.282C8.77491 23.3187 8.89922 23.3531 9.02433 23.3858C9.07769 23.3702 9.13091 23.3544 9.18396 23.3382C9.07049 23.2947 8.95784 23.2493 8.84604 23.2024ZM15.154 23.2024C15.0422 23.2493 14.9295 23.2947 14.816 23.3382C14.8691 23.3544 14.9223 23.3702 14.9756 23.3858C15.1008 23.3531 15.2251 23.3187 15.3486 23.282C15.2834 23.256 15.2185 23.2296 15.154 23.2024ZM9.64204 22.834C9.50127 22.9053 9.35893 22.9742 9.21507 23.0402C9.35118 23.0938 9.48851 23.1447 9.62702 23.1931C9.77104 23.1427 9.91382 23.0896 10.0552 23.034C9.91607 22.9698 9.77831 22.9031 9.64204 22.834ZM11.204 22.834C11.0677 22.9031 10.9299 22.9698 10.7908 23.034C10.9322 23.0896 11.075 23.1427 11.219 23.1931C11.3575 23.1447 11.4949 23.0938 11.631 23.0402C11.4871 22.9742 11.3448 22.9053 11.204 22.834ZM12.796 22.834C12.6552 22.9053 12.5129 22.9742 12.369 23.0402C12.5051 23.0938 12.6425 23.1447 12.781 23.1931C12.925 23.1427 13.0678 23.0896 13.2092 23.034C13.07 22.9698 12.9323 22.9031 12.796 22.834ZM14.3579 22.834C14.2217 22.9031 14.0839 22.9698 13.9447 23.034C14.0862 23.0896 14.2289 23.1427 14.373 23.1931C14.5115 23.1447 14.6488 23.0938 14.7849 23.0402C14.641 22.9742 14.4987 22.9053 14.3579 22.834ZM8.05758 22.8378C7.96113 22.8867 7.86398 22.9342 7.76609 22.9807C7.91249 23.0371 8.06033 23.0907 8.20951 23.1416C8.2992 23.1087 8.38838 23.0751 8.47704 23.0402C8.33573 22.9753 8.19591 22.9078 8.05758 22.8378ZM15.9349 22.8416C15.799 22.9102 15.6617 22.9767 15.5229 23.0402C15.6116 23.0751 15.7008 23.1087 15.7905 23.1416C15.9368 23.0918 16.0819 23.0391 16.2256 22.9838C16.128 22.9376 16.0311 22.8902 15.9349 22.8416ZM8.85356 22.396C8.6958 22.4916 8.53573 22.5833 8.3734 22.6718C8.52909 22.7473 8.68667 22.8196 8.84604 22.8884C9.00816 22.8184 9.1684 22.7449 9.32667 22.668C9.16676 22.5807 9.00902 22.49 8.85356 22.396ZM15.1389 22.4004C14.9859 22.4929 14.8306 22.5822 14.6733 22.668C14.8316 22.7449 14.9918 22.8184 15.1539 22.8884C15.3106 22.8207 15.4655 22.7498 15.6186 22.6756C15.4565 22.5876 15.2965 22.4958 15.1389 22.4004ZM12 22.3916C11.8421 22.4871 11.6818 22.5793 11.5194 22.668C11.6776 22.7449 11.8379 22.8184 12 22.8882C12.1621 22.8184 12.3223 22.7449 12.4806 22.668C12.3181 22.5793 12.1579 22.4871 12 22.3916ZM10.423 22.4004C10.27 22.4929 10.1148 22.5822 9.95742 22.668C10.1108 22.7424 10.266 22.8138 10.423 22.8818C10.58 22.8138 10.7352 22.7424 10.8886 22.668C10.7313 22.5822 10.5761 22.4929 10.423 22.4004ZM13.577 22.4004C13.4239 22.4929 13.2687 22.5822 13.1114 22.668C13.2647 22.7424 13.42 22.8138 13.577 22.8818C13.734 22.8138 13.8892 22.7424 14.0426 22.668C13.8852 22.5822 13.73 22.4929 13.577 22.4004ZM16.5592 1.15061C16.4558 1.19708 16.3531 1.24497 16.2512 1.29429C20.0404 3.35373 22.6124 7.36898 22.6124 11.985C22.6124 16.601 20.0404 20.6162 16.2512 22.6756C16.3644 22.7304 16.4786 22.7836 16.5938 22.8349C20.809 21.0454 23.7653 16.868 23.7656 12C23.7656 7.11878 20.7929 2.93184 16.5592 1.15061ZM7.43298 1.15384C3.20349 2.93693 0.234571 7.12176 0.234571 12C0.234578 16.865 3.18738 21.0403 7.39853 22.8316C7.51391 22.78 7.62831 22.7269 7.74173 22.6718C3.95642 20.6112 1.38748 16.5981 1.38748 11.985C1.38748 7.37187 3.9564 3.35873 7.74173 1.29816C7.63962 1.24863 7.53671 1.2005 7.43298 1.15384ZM15.9349 1.45326C15.759 1.54501 15.5857 1.64106 15.4151 1.74123C18.7864 3.90271 21.0205 7.68296 21.0205 11.985C21.0205 16.287 18.7864 20.0672 15.4151 22.2287C15.5857 22.3289 15.759 22.4249 15.9349 22.5167C19.7316 20.5364 22.3236 16.5634 22.3236 11.985C22.3236 7.40653 19.7316 3.43351 15.9349 1.45326ZM8.05758 1.4572C4.265 3.43878 1.67637 7.40956 1.67637 11.985C1.67637 16.5604 4.265 20.5312 8.05758 22.5127C8.2336 22.4207 8.40704 22.3244 8.57776 22.224C5.21044 20.0619 2.97947 16.284 2.97947 11.985C2.97947 7.686 5.21044 3.90809 8.57778 1.74586C8.40707 1.64544 8.23362 1.54918 8.05758 1.4572ZM9.63456 21.8815C9.46918 21.9998 9.30073 22.114 9.12933 22.224C9.29762 22.3231 9.46858 22.418 9.64204 22.5089C9.8128 22.4193 9.98113 22.326 10.1469 22.2287C9.973 22.1173 9.80222 22.0014 9.63456 21.8815ZM11.219 21.8761C11.049 21.998 10.8757 22.1156 10.6992 22.2287C10.8649 22.326 11.0332 22.4193 11.204 22.5089C11.3802 22.4167 11.5537 22.3202 11.7246 22.2195C11.553 22.1092 11.3845 21.9946 11.219 21.8761ZM12.781 21.8761C12.6155 21.9947 12.447 22.1092 12.2754 22.2195C12.4462 22.3202 12.6198 22.4167 12.796 22.5089C12.9667 22.4193 13.135 22.326 13.3008 22.2287C13.1243 22.1156 12.951 21.998 12.781 21.8761ZM14.3579 21.8868C14.1927 22.0049 14.0244 22.1189 13.8531 22.2287C14.0188 22.326 14.1872 22.4193 14.3579 22.5089C14.5287 22.4193 14.697 22.326 14.8628 22.2287C14.6915 22.1189 14.5232 22.0049 14.3579 21.8868ZM10.4305 21.2608C10.2514 21.4128 10.0678 21.5598 9.87989 21.7014C10.0574 21.8262 10.2385 21.9463 10.423 22.0615C10.6102 21.9446 10.7939 21.8227 10.9739 21.6959C10.7886 21.556 10.6074 21.4109 10.4305 21.2608ZM13.5619 21.2672C13.3875 21.415 13.2088 21.5579 13.026 21.6958C13.2061 21.8227 13.3898 21.9446 13.577 22.0615C13.7588 21.948 13.9373 21.8297 14.1124 21.7068C13.9246 21.5655 13.741 21.4189 13.5619 21.2672ZM15.1389 1.90842C14.9571 2.02194 14.7786 2.14022 14.6035 2.26313C17.5519 4.48191 19.4586 8.01078 19.4586 11.985C19.4586 15.9592 17.5519 19.488 14.6035 21.7068C14.7786 21.8297 14.9571 21.948 15.1389 22.0615C18.4973 19.9648 20.7316 16.2358 20.7316 11.985C20.7316 7.73413 18.4973 4.00516 15.1389 1.90842ZM8.85356 1.91313C5.4994 4.01073 3.26836 7.73731 3.26836 11.985C3.26836 16.2327 5.4994 19.9592 8.85356 22.0568C9.03547 21.943 9.21409 21.8245 9.38922 21.7014C6.44493 19.4822 4.54142 15.9559 4.54142 11.985C4.54142 8.01405 6.44491 4.48771 9.38922 2.2686C9.21409 2.14543 9.03547 2.02689 8.85356 1.91313ZM12 21.2672C11.8255 21.415 11.6468 21.558 11.4641 21.6959C11.6393 21.8193 11.818 21.9381 12 22.0521C12.182 21.9381 12.3607 21.8193 12.5358 21.6958C12.3532 21.5579 12.1745 21.415 12 21.2672ZM14.3579 2.44031C14.1615 2.58584 13.9697 2.73731 13.7828 2.89442C16.2882 5.12171 17.8666 8.36902 17.8666 11.985C17.8666 15.601 16.2882 18.8483 13.7828 21.0755C13.9697 21.2326 14.1615 21.3841 14.3579 21.5296C17.2772 19.367 19.1697 15.897 19.1697 11.985C19.1697 8.07293 17.2772 4.60291 14.3579 2.44031ZM9.63456 2.44589C6.71949 4.60887 4.83031 8.07629 4.83031 11.985C4.83031 15.8937 6.71949 19.3611 9.63453 21.5241C9.83107 21.3782 10.023 21.2265 10.2099 21.069C7.70876 18.842 6.13342 15.5975 6.13342 11.985C6.13342 8.37253 7.70876 5.12802 10.2099 2.90091C10.023 2.74349 9.83109 2.59173 9.63456 2.44589ZM11.2115 20.5375C11.0304 20.7205 10.8435 20.8978 10.6512 21.069C10.8357 21.2245 11.0251 21.3744 11.219 21.5185C11.4102 21.3764 11.597 21.2286 11.7791 21.0756C11.5842 20.9023 11.3949 20.7228 11.2115 20.5375ZM12.781 20.545C12.5999 20.7277 12.4131 20.9046 12.2208 21.0756C12.403 21.2286 12.5898 21.3764 12.781 21.5185C12.9722 21.3764 13.159 21.2286 13.3411 21.0755C13.1488 20.9046 12.962 20.7277 12.781 20.545ZM11.9925 19.669C11.807 19.8962 11.6135 20.1166 11.4123 20.3297C11.6018 20.5214 11.7978 20.7067 12 20.8852C12.1994 20.7091 12.3928 20.5264 12.58 20.3375C12.3762 20.1219 12.1802 19.899 11.9925 19.669ZM13.5619 3.08471C13.3625 3.26084 13.1691 3.44353 12.982 3.63251C15.0416 5.81087 16.3047 8.75042 16.3047 11.985C16.3047 15.2196 15.0416 18.1591 12.982 20.3375C13.1691 20.5264 13.3625 20.7091 13.5619 20.8852C16.0246 18.7102 17.5777 15.529 17.5777 11.985C17.5777 8.441 16.0246 5.25978 13.5619 3.08471ZM10.4305 3.09133C7.97222 5.26622 6.42231 8.4446 6.42231 11.985C6.42231 15.5254 7.97224 18.7037 10.4305 20.8786C10.63 20.7021 10.8235 20.5191 11.0107 20.3297C8.95533 18.1521 7.69533 15.2157 7.69533 11.985C7.69533 8.75427 8.95533 5.81784 11.0107 3.64027C10.8235 3.45091 10.63 3.26782 10.4305 3.09133ZM12.781 3.8404C12.5709 4.06311 12.3693 4.29393 12.1768 4.53236C13.7756 6.5908 14.7277 9.17671 14.7277 11.985C14.7277 14.7933 13.7756 17.3792 12.1768 19.4376C12.3693 19.676 12.5709 19.9068 12.781 20.1295C14.7864 18.0039 16.0158 15.138 16.0158 11.985C16.0158 8.83196 14.7864 5.96607 12.781 3.8404ZM11.2115 3.84836C9.21047 5.9732 7.98422 8.83589 7.98422 11.985C7.98422 15.1341 9.21047 17.9968 11.2115 20.1216C11.4189 19.9014 11.618 19.6732 11.8082 19.4376C10.2093 17.3792 9.25731 14.7933 9.25731 11.985C9.25731 9.17671 10.2093 6.59078 11.8082 4.53233C11.618 4.29676 11.4189 4.06858 11.2115 3.84836ZM11.9925 4.7664C10.4581 6.76658 9.5462 9.26929 9.5462 11.985C9.5462 14.7007 10.4582 17.2034 11.9925 19.2035C13.5268 17.2034 14.4388 14.7007 14.4388 11.985C14.4388 9.26929 13.5268 6.7666 11.9925 4.7664ZM12 3.08471C11.7978 3.26322 11.6018 3.44851 11.4123 3.64024C11.6134 3.85336 11.807 4.07373 11.9925 4.30096C12.1802 4.07098 12.3762 3.84802 12.58 3.63251C12.3928 3.44353 12.1994 3.26082 12 3.08471ZM11.219 2.45147C11.0251 2.5956 10.8357 2.74549 10.6512 2.90091C10.8435 3.07218 11.0304 3.24944 11.2115 3.43244C11.3949 3.24713 11.5842 3.06769 11.7791 2.8944C11.597 2.74131 11.4102 2.59358 11.219 2.45147ZM12.781 2.45147C12.5898 2.59358 12.403 2.74131 12.2208 2.8944C12.4131 3.06533 12.5999 3.24227 12.781 3.42491C12.962 3.24227 13.1488 3.06536 13.3411 2.89442C13.159 2.74131 12.9722 2.59358 12.781 2.45147ZM10.423 1.90842C10.2385 2.02362 10.0574 2.14373 9.87987 2.2686C10.0677 2.4102 10.2514 2.55711 10.4305 2.70913C10.6074 2.55909 10.7886 2.414 10.9739 2.27409C10.7939 2.14726 10.6102 2.0253 10.423 1.90842ZM12 1.91786C11.818 2.03186 11.6393 2.15065 11.4641 2.27407C11.6468 2.41198 11.8255 2.55496 12 2.70273C12.1744 2.55496 12.3532 2.412 12.5358 2.27409C12.3607 2.15066 12.182 2.03186 12 1.91786ZM13.577 1.90842C13.3898 2.0253 13.2061 2.14726 13.026 2.27409C13.2088 2.412 13.3875 2.55496 13.5619 2.70273C13.741 2.55102 13.9246 2.40444 14.1124 2.26316C13.9373 2.14024 13.7588 2.02194 13.577 1.90842ZM11.204 1.46113C11.0332 1.55051 10.8649 1.64392 10.6992 1.74123C10.8756 1.85437 11.049 1.97199 11.219 2.09384C11.3845 1.97529 11.553 1.86078 11.7246 1.75048C11.5537 1.64982 11.3802 1.55334 11.204 1.46113ZM12.796 1.46113C12.6198 1.55334 12.4462 1.64982 12.2754 1.75048C12.4469 1.86078 12.6155 1.97529 12.781 2.09384C12.951 1.97199 13.1243 1.85437 13.3008 1.74123C13.1351 1.64392 12.9668 1.55051 12.796 1.46113ZM9.64204 1.46113C9.46858 1.55192 9.29762 1.64687 9.12933 1.74586C9.30073 1.85591 9.46918 1.97017 9.63456 2.08846C9.80222 1.96852 9.97302 1.8527 10.1469 1.74123C9.98113 1.64391 9.8128 1.55051 9.64204 1.46113ZM14.3579 1.46113C14.1872 1.55051 14.0188 1.64391 13.8531 1.74123C14.0244 1.85104 14.1927 1.96507 14.3579 2.0831C14.5232 1.96507 14.6915 1.85104 14.8628 1.74123C14.697 1.64392 14.5287 1.55051 14.3579 1.46113ZM12 1.08162C11.8379 1.15161 11.6776 1.22511 11.5194 1.30202C11.6818 1.39061 11.8421 1.48281 12 1.57849C12.1579 1.48281 12.3181 1.39061 12.4806 1.30202C12.3223 1.22511 12.1621 1.1516 12 1.08162ZM8.84604 1.0816C8.68664 1.15041 8.52909 1.22265 8.3734 1.29816C8.53573 1.38652 8.6958 1.4785 8.85356 1.57394C9.00902 1.47988 9.16676 1.38921 9.32667 1.30202C9.1684 1.22511 9.00816 1.15158 8.84604 1.0816ZM10.423 1.08813C10.266 1.15616 10.1108 1.22748 9.95742 1.30202C10.1148 1.3878 10.27 1.47698 10.423 1.56942C10.5761 1.47698 10.7313 1.3878 10.8886 1.30202C10.7352 1.22748 10.58 1.15616 10.423 1.08813ZM13.577 1.08813C13.42 1.15617 13.2647 1.22748 13.1114 1.30202C13.2687 1.3878 13.4239 1.47698 13.577 1.56942C13.73 1.47698 13.8852 1.3878 14.0426 1.30202C13.8892 1.22749 13.734 1.15616 13.577 1.08813ZM15.1539 1.0816C14.9918 1.15158 14.8316 1.22511 14.6733 1.30202C14.8306 1.3878 14.9859 1.47696 15.1389 1.5694C15.2965 1.4742 15.4565 1.38244 15.6186 1.29429C15.4655 1.22018 15.3106 1.14924 15.1539 1.0816ZM9.62702 0.776909C9.48851 0.825347 9.3512 0.876293 9.21509 0.929667C9.35893 0.995747 9.50127 1.06458 9.64204 1.13605C9.77831 1.06686 9.91607 1.00016 10.0552 0.936024C9.9138 0.880324 9.77104 0.827276 9.62702 0.776909ZM11.219 0.776909C11.075 0.82728 10.9322 0.880298 10.7908 0.936002C10.9299 1.00015 11.0677 1.06686 11.204 1.13605C11.3448 1.06458 11.4871 0.995729 11.631 0.929644C11.4949 0.876269 11.3575 0.825349 11.219 0.776909ZM12.781 0.776909C12.6425 0.825349 12.5051 0.876269 12.369 0.929644C12.5129 0.995729 12.6552 1.06458 12.796 1.13605C12.9323 1.06686 13.07 1.00015 13.2092 0.936002C13.0678 0.8803 12.925 0.827278 12.781 0.776909ZM14.373 0.776909C14.2289 0.827276 14.0862 0.880322 13.9448 0.936024C14.0839 1.00016 14.2217 1.06686 14.3579 1.13605C14.4987 1.06458 14.641 0.995747 14.7849 0.929667C14.6488 0.876293 14.5115 0.825347 14.373 0.776909ZM8.25216 0.84412C8.10036 0.895091 7.94996 0.949064 7.801 1.00599C7.88709 1.04709 7.9726 1.08917 8.05756 1.13223C8.19589 1.06212 8.33573 0.994556 8.47704 0.929644C8.40244 0.900393 8.32747 0.871896 8.25216 0.84412ZM15.7478 0.84412C15.6725 0.871896 15.5975 0.900393 15.5229 0.929644C15.6617 0.99338 15.799 1.05966 15.9349 1.12841C16.0196 1.08557 16.1048 1.0437 16.1906 1.0028C16.0444 0.947044 15.8968 0.89414 15.7478 0.84412ZM10.423 0.529796C10.3046 0.562007 10.187 0.595998 10.0701 0.631749C10.1886 0.677338 10.3063 0.724731 10.423 0.773893C10.5398 0.724733 10.6574 0.677336 10.776 0.631749C10.6591 0.595996 10.5414 0.562009 10.423 0.529796ZM13.577 0.529796C13.4586 0.562007 13.3409 0.595996 13.224 0.631749C13.3426 0.677338 13.4602 0.724731 13.577 0.773893C13.6937 0.724733 13.8114 0.677336 13.9299 0.631749C13.813 0.595998 13.6954 0.562007 13.577 0.529796ZM12 0.533898C11.8867 0.564891 11.774 0.597507 11.6621 0.631749C11.7755 0.675384 11.8882 0.720689 12 0.7676C12.1118 0.720691 12.2244 0.675382 12.3379 0.631749C12.226 0.597509 12.1133 0.564889 12 0.533898ZM9.07873 0.600109C8.94982 0.633042 8.82178 0.6681 8.69462 0.705251C8.74527 0.725698 8.79576 0.746471 8.84604 0.767578C8.95784 0.720671 9.07049 0.675382 9.18396 0.631749C9.14896 0.621042 9.11387 0.6105 9.07873 0.600109ZM14.9212 0.600109C14.8861 0.610498 14.851 0.621044 14.816 0.631749C14.9295 0.675384 15.0422 0.720669 15.154 0.767578C15.2042 0.746471 15.2547 0.725698 15.3054 0.705251C15.1782 0.668096 15.0501 0.633044 14.9212 0.600109ZM11.204 0.345616C11.1291 0.3606 11.0546 0.376302 10.9802 0.392687C11.0602 0.418058 11.1398 0.444276 11.219 0.471247C11.2942 0.445658 11.3697 0.42074 11.4455 0.396593C11.3653 0.378784 11.2848 0.361791 11.204 0.345616ZM12.796 0.345616C12.7152 0.361793 12.6347 0.378784 12.5545 0.396593C12.6303 0.420742 12.7058 0.445658 12.781 0.471247C12.8602 0.444278 12.9398 0.418056 13.0198 0.392687C12.9454 0.376302 12.8708 0.3606 12.796 0.345616ZM12 0.234591L12.0001 0.234571H11.9999L12 0.234591Z"/>
  </g>
</svg>