<svg viewBox="0 0 12 12" xmlns="http://www.w3.org/2000/svg"><title>dark mode</title><path d="M3.28.65l.11-.054.339-.151.395-.146.226-.07.31-.079.217-.045.236-.04.173-.023.306-.028a6 6 0 0 1 6.404 5.761L12 6A6 6 0 1 1 0 6l.007-.287.02-.294c.017-.167.04-.331.069-.494l.033-.166.06-.259.028-.103.045-.157.084-.252a5.96 5.96 0 0 1 .124-.32l.066-.15.114-.238c.182-.356.398-.692.644-1.002l.239-.284.119-.128.178-.18.127-.12.258-.221.25-.193.19-.134.179-.116L3.1.746 3.28.65zM6 11a5 5 0 0 0 5-5H1a5 5 0 0 0 5 5z" fill-rule="evenodd"/></svg>