<svg viewBox="0 0 12 12" xmlns="http://www.w3.org/2000/svg"><title>light mode</title><path d="M8.72 11.35l-.11.054-.339.151-.395.146-.226.07-.31.079-.217.045-.236.04-.173.023-.306.028A6 6 0 0 1 .004 6.225L0 6a6 6 0 1 1 12 0l-.007.287-.02.294a5.998 5.998 0 0 1-.069.494l-.033.166-.06.259-.028.103-.045.157-.084.252a5.96 5.96 0 0 1-.124.32l-.066.15-.114.238a6.006 6.006 0 0 1-.644 1.002l-.239.284-.119.128-.178.18-.127.12-.258.221-.25.193-.19.134-.179.116-.267.156-.18.096zM6 1a5 5 0 0 0-5 5h10a5 5 0 0 0-5-5z" fill-rule="evenodd"/></svg>