<svg viewBox="0 0 512 512" xmlns="http://www.w3.org/2000/svg" xmlns:xlink="http://www.w3.org/1999/xlink">
  <title>Favicon</title>
  <defs>
    <circle id="a" cx="190" cy="190" r="190"/>
  </defs>
  <g fill="none" fill-rule="evenodd">
    <rect fill="#000" width="512" height="512" rx="54"/>
    <g transform="translate(66 66)">
      <mask id="b" fill="#fff">
        <use xlink:href="#a"/>
      </mask>
      <circle stroke="#FFF" stroke-width="4" cx="190" cy="190" r="188"/>
      <path d="M40.5-1C-64.71-1-150 84.29-150 189.5S-64.71 380 40.5 380 231 294.71 231 189.5 145.71-1 40.5-1zm0 .95c104.686 0 189.55 84.864 189.55 189.55S145.186 379.05 40.5 379.05s-189.55-84.864-189.55-189.55S-64.186-.05 40.5-.05z" stroke="#FFF" stroke-width="4" mask="url(#b)"/>
      <path d="M339.5-1C234.29-1 149 84.29 149 189.5S234.29 380 339.5 380 530 294.71 530 189.5 444.71-1 339.5-1zm0 .95c104.686 0 189.55 84.864 189.55 189.55S444.186 379.05 339.5 379.05 149.95 294.186 149.95 189.5 234.814-.05 339.5-.05z" stroke="#FFF" stroke-width="4" mask="url(#b)"/>
      <path d="M66.5-1C-38.71-1-124 84.29-124 189.5S-38.71 380 66.5 380 257 294.71 257 189.5 171.71-1 66.5-1zm0 .95c104.686 0 189.55 84.864 189.55 189.55S171.186 379.05 66.5 379.05s-189.55-84.864-189.55-189.55S-38.186-.05 66.5-.05z" stroke="#FFF" stroke-width="4" mask="url(#b)"/>
      <path d="M313.5-1C208.29-1 123 84.29 123 189.5S208.29 380 313.5 380 504 294.71 504 189.5 418.71-1 313.5-1zm0 .95c104.686 0 189.55 84.864 189.55 189.55S418.186 379.05 313.5 379.05 123.95 294.186 123.95 189.5 208.814-.05 313.5-.05z" stroke="#FFF" stroke-width="4" mask="url(#b)"/>
      <path d="M289.5-1C184.29-1 99 84.29 99 189.5S184.29 380 289.5 380 480 294.71 480 189.5 394.71-1 289.5-1zm0 .95c104.686 0 189.55 84.864 189.55 189.55S394.186 379.05 289.5 379.05 99.95 294.186 99.95 189.5 184.814-.05 289.5-.05z" stroke="#FFF" stroke-width="4" mask="url(#b)"/>
      <path d="M264.5-1C159.29-1 74 84.29 74 189.5S159.29 380 264.5 380 455 294.71 455 189.5 369.71-1 264.5-1zm0 .95c104.686 0 189.55 84.864 189.55 189.55S369.186 379.05 264.5 379.05 74.95 294.186 74.95 189.5 159.814-.05 264.5-.05z" stroke="#FFF" stroke-width="4" mask="url(#b)"/>
      <path d="M239.5-1C134.29-1 49 84.29 49 189.5S134.29 380 239.5 380 430 294.71 430 189.5 344.71-1 239.5-1zm0 .95c104.686 0 189.55 84.864 189.55 189.55S344.186 379.05 239.5 379.05 49.95 294.186 49.95 189.5 134.814-.05 239.5-.05z" stroke="#FFF" stroke-width="4" mask="url(#b)"/>
      <path d="M90.5-1C-14.71-1-100 84.29-100 189.5S-14.71 380 90.5 380 281 294.71 281 189.5 195.71-1 90.5-1zm0 .95c104.686 0 189.55 84.864 189.55 189.55S195.186 379.05 90.5 379.05-99.05 294.186-99.05 189.5-14.186-.05 90.5-.05z" stroke="#FFF" stroke-width="4" mask="url(#b)"/>
      <path d="M115.5-1C10.29-1-75 84.29-75 189.5S10.29 380 115.5 380 306 294.71 306 189.5 220.71-1 115.5-1zm0 .95c104.686 0 189.55 84.864 189.55 189.55S220.186 379.05 115.5 379.05-74.05 294.186-74.05 189.5 10.814-.05 115.5-.05z" stroke="#FFF" stroke-width="4" mask="url(#b)"/>
      <path d="M165.5-1C60.29-1-25 84.29-25 189.5S60.29 380 165.5 380 356 294.71 356 189.5 270.71-1 165.5-1zm0 .95c104.686 0 189.55 84.864 189.55 189.55S270.186 379.05 165.5 379.05-24.05 294.186-24.05 189.5 60.814-.05 165.5-.05z" stroke="#FFF" stroke-width="4" mask="url(#b)"/>
      <path d="M140.5-1C35.29-1-50 84.29-50 189.5S35.29 380 140.5 380 331 294.71 331 189.5 245.71-1 140.5-1zm0 .95c104.686 0 189.55 84.864 189.55 189.55S245.186 379.05 140.5 379.05-49.05 294.186-49.05 189.5 35.814-.05 140.5-.05z" stroke="#FFF" stroke-width="4" mask="url(#b)"/>
      <path d="M214.5-1C109.29-1 24 84.29 24 189.5S109.29 380 214.5 380 405 294.71 405 189.5 319.71-1 214.5-1zm0 .95c104.686 0 189.55 84.864 189.55 189.55S319.186 379.05 214.5 379.05 24.95 294.186 24.95 189.5 109.814-.05 214.5-.05z" stroke="#FFF" stroke-width="4" mask="url(#b)"/>
    </g>
  </g>
</svg>