<svg viewBox="0 0 1078 1078" xmlns="http://www.w3.org/2000/svg">
  <path fill-rule="evenodd" clip-rule="evenodd" d="M539 0C836.682 0 1078 241.319 1078 539C1078 836.682 836.682 1078 539 1078C241.319 1078 0 836.682 0 539C0 241.319 241.319 0 539 0ZM539 1063.99C533.117 1065.56 527.194 1067.04 521.234 1068.43C527.124 1069.39 533.046 1070.26 538.999 1071.03C544.952 1070.26 550.874 1069.39 556.765 1068.43C550.805 1067.04 544.883 1065.56 539 1063.99ZM468.036 1064.17C465.88 1064.74 463.719 1065.3 461.553 1065.85C468.952 1066.93 476.401 1067.86 483.896 1068.63C484.306 1068.56 484.715 1068.49 485.124 1068.43C479.393 1067.1 473.696 1065.68 468.036 1064.17ZM609.963 1064.17C604.302 1065.68 598.606 1067.1 592.874 1068.43C593.283 1068.49 593.693 1068.56 594.103 1068.63C601.598 1067.86 609.047 1066.93 616.446 1065.85C614.28 1065.3 612.119 1064.74 609.963 1064.17ZM503.855 1053.27C496.485 1055.8 489.043 1058.17 481.534 1060.38C488.694 1062.11 495.911 1063.71 503.18 1065.16C510.7 1063.66 518.164 1062.01 525.567 1060.2C518.265 1058.04 511.026 1055.73 503.855 1053.27ZM574.144 1053.27C566.972 1055.73 559.734 1058.04 552.431 1060.2C559.834 1062.01 567.299 1063.66 574.819 1065.16C582.089 1063.71 589.305 1062.11 596.465 1060.38C588.956 1058.17 581.514 1055.79 574.144 1053.27ZM432.217 1053.27C427.68 1054.83 423.116 1056.32 418.526 1057.76C426.803 1059.67 435.154 1061.39 443.573 1062.92C447.242 1062.11 450.897 1061.26 454.537 1060.38C447.028 1058.17 439.587 1055.8 432.217 1053.27ZM645.783 1053.27C638.413 1055.79 630.971 1058.17 623.462 1060.38C627.102 1061.26 630.757 1062.11 634.426 1062.92C642.846 1061.39 651.197 1059.67 659.474 1057.76C654.884 1056.32 650.32 1054.82 645.783 1053.27ZM468.036 1039.57C459.777 1043.07 451.414 1046.37 442.952 1049.47C451.227 1052.15 459.59 1054.63 468.036 1056.92C476.481 1054.63 484.844 1052.15 493.119 1049.47C484.658 1046.37 476.295 1043.07 468.036 1039.57ZM609.964 1039.57C601.705 1043.07 593.342 1046.37 584.88 1049.47C593.155 1052.15 601.518 1054.63 609.963 1056.92C618.408 1054.63 626.771 1052.15 635.046 1049.47C626.585 1046.37 618.222 1043.07 609.964 1039.57ZM539 1039.85C530.961 1043.25 522.823 1046.46 514.592 1049.47C522.646 1052.08 530.784 1054.5 539 1056.73C547.216 1054.5 555.353 1052.08 563.407 1049.47C555.176 1046.46 547.039 1043.25 539 1039.85ZM397.072 1039.85C391.159 1042.35 385.192 1044.75 379.174 1047.04C387.736 1049.73 396.392 1052.21 405.135 1054.47C410.619 1052.89 416.069 1051.22 421.479 1049.47C413.249 1046.46 405.111 1043.25 397.072 1039.85ZM680.927 1039.85C672.888 1043.25 664.75 1046.46 656.52 1049.47C661.931 1051.22 667.38 1052.89 672.865 1054.47C681.608 1052.21 690.263 1049.73 698.825 1047.04C692.807 1044.75 686.84 1042.35 680.927 1039.85ZM432.892 1023.16C424.069 1027.67 415.106 1031.95 406.013 1035.98C414.637 1039.5 423.374 1042.79 432.216 1045.86C441.298 1042.71 450.27 1039.32 459.123 1035.69C450.251 1031.74 441.505 1027.56 432.892 1023.16ZM503.18 1023.16C494.566 1027.56 485.82 1031.74 476.948 1035.69C485.801 1039.32 494.773 1042.71 503.855 1045.86C512.697 1042.79 521.434 1039.5 530.059 1035.98C520.965 1031.95 512.003 1027.67 503.18 1023.16ZM574.819 1023.16C565.996 1027.67 557.034 1031.95 547.94 1035.98C556.565 1039.5 565.302 1042.79 574.144 1045.86C583.226 1042.71 592.198 1039.32 601.051 1035.69C592.179 1031.74 583.433 1027.56 574.819 1023.16ZM645.107 1023.16C636.494 1027.56 627.748 1031.74 618.876 1035.69C627.729 1039.32 636.701 1042.71 645.783 1045.86C654.625 1042.79 663.361 1039.5 671.985 1035.98C662.892 1031.95 653.93 1027.67 645.107 1023.16ZM361.591 1023.33C354.765 1026.81 347.855 1030.16 340.866 1033.36C349.943 1037 359.144 1040.4 368.46 1043.55C375.078 1041.15 381.636 1038.63 388.131 1035.98C379.154 1032 370.304 1027.78 361.591 1023.33ZM716.07 1023.5C707.465 1027.89 698.729 1032.05 689.867 1035.98C696.362 1038.63 702.92 1041.15 709.538 1043.55C718.731 1040.44 727.812 1037.09 736.772 1033.5C729.791 1030.31 722.889 1026.98 716.07 1023.5ZM397.41 1003.31C388.197 1008.93 378.804 1014.28 369.242 1019.35C378.374 1023.9 387.654 1028.2 397.072 1032.24C406.611 1028.15 416.006 1023.79 425.251 1019.17C415.802 1014.15 406.518 1008.86 397.41 1003.31ZM539 1003.1C529.784 1008.73 520.387 1014.09 510.82 1019.17C520.065 1023.79 529.461 1028.15 539 1032.24C548.538 1028.15 557.934 1023.79 567.179 1019.17C557.612 1014.09 548.216 1008.73 539 1003.1ZM680.251 1003.52C671.252 1008.99 662.08 1014.22 652.748 1019.17C661.992 1023.79 671.388 1028.15 680.927 1032.24C690.226 1028.25 699.39 1024.01 708.409 1019.52C698.851 1014.46 689.461 1009.12 680.251 1003.52ZM468.036 1003.52C459.037 1008.99 449.865 1014.22 440.532 1019.17C449.559 1023.68 458.729 1027.95 468.036 1031.95C477.343 1027.95 486.513 1023.68 495.539 1019.17C486.207 1014.22 477.035 1008.99 468.036 1003.52ZM609.963 1003.52C600.964 1008.99 591.792 1014.21 582.46 1019.17C591.486 1023.68 600.657 1027.95 609.964 1031.95C619.27 1027.95 628.44 1023.68 637.466 1019.17C628.133 1014.22 618.962 1008.99 609.963 1003.52ZM744.126 47.5059C737.25 50.5732 730.451 53.7808 723.731 57.125C896.121 148.433 1013.56 329.663 1013.56 538.324C1013.56 746.986 896.12 928.215 723.731 1019.52C730.961 1023.12 738.283 1026.56 745.692 1029.84C937.092 949.139 1071.44 759.761 1071.45 539.001C1071.45 317.639 936.359 127.828 744.126 47.5059ZM333.523 47.6523C141.477 128.059 6.55566 317.773 6.55566 539.001C6.55601 759.628 140.746 948.911 331.96 1029.69C339.376 1026.4 346.704 1022.96 353.938 1019.35C181.729 927.985 64.4365 746.853 64.4365 538.324C64.4365 329.795 181.729 148.663 353.938 57.2988C347.212 53.9453 340.406 50.7284 333.523 47.6523ZM716.07 61.0146C706.176 66.1385 696.461 71.5604 686.938 77.2695C840.114 173.549 941.925 344.046 941.925 538.324C941.925 732.602 840.114 903.098 686.938 999.378C696.461 1005.09 706.176 1010.51 716.07 1015.63C888.635 926.267 1006.56 746.068 1006.56 538.324C1006.56 330.58 888.635 150.381 716.07 61.0146ZM361.591 61.1895C189.21 150.616 71.4365 330.716 71.4365 538.324C71.4365 745.932 189.211 926.032 361.591 1015.46C371.488 1010.32 381.204 1004.89 390.729 999.17C237.738 902.852 136.075 732.461 136.075 538.324C136.075 344.187 237.738 173.795 390.729 77.4775C381.204 71.7576 371.488 66.3236 361.591 61.1895ZM432.555 979.975C423.282 986.663 413.789 993.064 404.091 999.17C413.508 1004.83 423.111 1010.2 432.892 1015.28C442.553 1010.26 452.041 1004.96 461.348 999.378C451.535 993.21 441.933 986.738 432.555 979.975ZM503.855 979.729C494.37 986.582 484.655 993.136 474.724 999.378C484.03 1004.96 493.519 1010.26 503.18 1015.28C513.08 1010.14 522.798 1004.69 532.325 998.962C522.624 992.845 513.13 986.43 503.855 979.729ZM574.144 979.73C564.869 986.431 555.375 992.845 545.674 998.962C555.201 1004.69 564.919 1010.14 574.819 1015.28C584.48 1010.26 593.969 1004.96 603.275 999.378C593.344 993.136 583.629 986.583 574.144 979.73ZM645.107 980.22C635.837 986.895 626.346 993.284 616.651 999.378C625.958 1004.96 635.446 1010.26 645.107 1015.28C654.768 1010.26 664.257 1004.96 673.563 999.378C663.869 993.284 654.378 986.895 645.107 980.22ZM468.374 951.797C458.704 960.079 448.74 968.026 438.5 975.624C448.114 982.497 457.964 989.06 468.036 995.3C478.228 988.986 488.193 982.339 497.916 975.377C487.793 967.854 477.939 959.989 468.374 951.797ZM609.287 952.086C599.828 960.174 590.087 967.943 580.083 975.377C589.807 982.339 599.771 988.985 609.964 995.3C619.915 989.135 629.65 982.653 639.154 975.87C628.917 968.287 618.955 960.353 609.287 952.086ZM680.251 81.3477C670.299 87.5128 660.564 93.9942 651.06 100.777C784.885 199.915 871.637 358.988 871.637 538.324C871.637 717.66 784.885 876.732 651.06 975.87C660.565 982.653 670.299 989.135 680.251 995.3C833.108 900.603 934.925 731.355 934.925 538.324C934.925 345.293 833.108 176.045 680.251 81.3477ZM397.41 81.5576C244.741 176.295 143.075 345.436 143.075 538.324C143.075 731.212 244.742 900.353 397.41 995.09C407.365 988.913 417.102 982.42 426.608 975.624C292.972 876.469 206.364 717.511 206.364 538.324C206.364 359.137 292.971 200.179 426.608 101.023C417.102 94.2278 407.364 87.7347 397.41 81.5576ZM538.999 952.086C529.54 960.174 519.799 967.943 509.795 975.377C519.303 982.185 529.043 988.692 539 994.881C548.957 988.692 558.696 982.185 568.204 975.377C558.2 967.942 548.458 960.175 538.999 952.086ZM645.107 105.087C634.657 112.762 624.495 120.806 614.64 129.199C728.268 228.935 799.997 375.253 799.997 538.324C799.997 701.396 728.268 847.713 614.64 947.449C624.495 955.843 634.657 963.886 645.107 971.561C778.227 873.793 864.637 716.151 864.637 538.324C864.637 360.498 778.227 202.854 645.107 105.087ZM432.555 105.335C299.627 203.121 213.364 360.648 213.364 538.324C213.364 716 299.627 873.527 432.555 971.312C443.007 963.623 453.171 955.564 463.027 947.155C349.593 847.426 278.004 701.236 278.004 538.324C278.004 375.412 349.593 229.221 463.027 129.492C453.171 121.083 443.007 113.024 432.555 105.335ZM503.518 918.908C493.944 928.691 484.004 938.115 473.721 947.156C483.471 955.474 493.522 963.45 503.855 971.064C514.068 963.539 524.005 955.661 533.647 947.448C523.245 938.318 513.195 928.796 503.518 918.908ZM574.144 919.252C564.57 929.017 554.633 938.424 544.352 947.448C553.994 955.661 563.931 963.539 574.144 971.064C584.356 963.54 594.292 955.662 603.935 947.449C593.653 938.425 583.717 929.017 574.144 919.252ZM538.662 879.343C529.053 891.278 518.949 902.798 508.384 913.874C518.206 923.918 528.42 933.578 538.999 942.83C549.456 933.685 559.555 924.141 569.272 914.222C558.587 903.039 548.372 891.403 538.662 879.343ZM609.287 133.817C598.83 142.962 588.731 152.507 579.014 162.426C672.37 260.121 729.709 392.526 729.709 538.324C729.709 684.122 672.37 816.527 579.014 914.222C588.731 924.141 598.83 933.685 609.287 942.83C721.879 844.364 792.997 699.65 792.997 538.324C792.997 376.998 721.88 232.284 609.287 133.817ZM468.374 134.112C355.977 232.573 285.004 377.16 285.004 538.324C285.004 699.488 355.977 844.075 468.374 942.535C478.833 933.373 488.934 923.811 498.651 913.874C405.492 816.213 348.291 683.948 348.291 538.324C348.291 392.7 405.492 260.435 498.651 162.773C488.934 152.836 478.833 143.274 468.374 134.112ZM574.144 167.461C563.3 178.82 552.95 190.655 543.127 202.929C615.56 295.352 658.745 411.794 658.745 538.324C658.745 664.854 615.56 781.296 543.127 873.719C552.95 885.993 563.3 897.827 574.144 909.187C666.186 812.767 722.709 682.147 722.709 538.324C722.709 394.501 666.186 263.88 574.144 167.461ZM503.518 167.814C411.675 264.199 355.291 394.677 355.291 538.324C355.291 681.971 411.675 812.448 503.518 908.833C514.239 897.582 524.475 885.865 534.196 873.718C461.764 781.295 418.579 664.853 418.579 538.324C418.579 411.795 461.763 295.353 534.196 202.93C524.475 190.783 514.239 179.066 503.518 167.814ZM538.661 208.585C467.791 299.603 425.579 414.034 425.579 538.324C425.579 662.614 467.792 777.044 538.661 868.062C609.531 777.044 651.745 662.615 651.745 538.324C651.745 414.033 609.531 299.603 538.661 208.585ZM538.999 133.817C528.42 143.069 518.206 152.729 508.384 162.773C518.949 173.849 529.053 185.37 538.662 197.305C548.372 185.245 558.587 173.608 569.272 162.426C559.555 152.507 549.456 142.962 538.999 133.817ZM503.855 105.583C493.522 113.197 483.471 121.174 473.721 129.492C484.004 138.533 493.944 147.957 503.518 157.739C513.194 147.851 523.245 138.329 533.646 129.199C524.004 120.987 514.068 113.108 503.855 105.583ZM574.144 105.583C563.931 113.108 553.994 120.986 544.352 129.199C554.633 138.224 564.57 147.631 574.144 157.396C583.717 147.631 593.653 138.223 603.935 129.199C594.292 120.987 584.356 113.108 574.144 105.583ZM468.036 81.3477C457.964 87.5874 448.114 94.1509 438.5 101.023C448.74 108.621 458.704 116.569 468.374 124.851C477.939 116.658 487.793 108.793 497.916 101.271C488.193 94.3084 478.228 87.6619 468.036 81.3477ZM539 81.7666C529.043 87.9557 519.303 94.4621 509.795 101.271C519.799 108.705 529.54 116.473 538.999 124.562C548.458 116.473 558.2 108.705 568.204 101.271C558.696 94.4623 548.957 87.9556 539 81.7666ZM609.964 81.3477C599.771 87.662 589.807 94.3082 580.083 101.271C590.087 108.705 599.828 116.473 609.287 124.562C618.955 116.294 628.917 108.361 639.154 100.777C629.65 93.9944 619.915 87.5127 609.964 81.3477ZM503.18 61.3633C493.519 66.3839 484.03 71.6903 474.724 77.2695C484.655 83.5118 494.37 90.0655 503.855 96.918C513.13 90.2177 522.624 83.8027 532.325 77.6855C522.798 71.9544 513.08 66.5081 503.18 61.3633ZM574.819 61.3633C564.919 66.5081 555.201 71.9544 545.674 77.6855C555.375 83.8026 564.869 90.2169 574.144 96.917C583.629 90.0646 593.344 83.5117 603.275 77.2695C593.969 71.6903 584.48 66.3838 574.819 61.3633ZM432.892 61.3633C423.111 66.446 413.508 71.8224 404.091 77.4775C413.789 83.5831 423.282 89.9848 432.555 96.6729C441.933 89.909 451.535 83.4374 461.348 77.2695C452.041 71.6903 442.553 66.3838 432.892 61.3633ZM645.107 61.3633C635.446 66.3838 625.958 71.6903 616.651 77.2695C626.346 83.3633 635.837 89.7521 645.107 96.4277C654.378 89.7521 663.869 83.3633 673.563 77.2695C664.257 71.6903 654.768 66.3838 645.107 61.3633ZM539 44.4053C529.461 48.496 520.065 52.8559 510.82 57.4736C520.387 62.5574 529.784 67.9176 539 73.5449C548.216 67.9176 557.612 62.5564 567.179 57.4727C557.934 52.8551 548.538 48.4958 539 44.4053ZM397.072 44.4053C387.654 48.4444 378.374 52.7457 369.242 57.2988C378.804 62.372 388.197 67.7219 397.41 73.3379C406.518 67.786 415.802 62.4951 425.251 57.4736C416.006 52.856 406.611 48.4959 397.072 44.4053ZM468.036 44.6943C458.729 48.7008 449.559 52.964 440.532 57.4727C449.865 62.4321 459.037 67.6539 468.036 73.1309C477.035 67.654 486.207 62.432 495.539 57.4727C486.513 52.9641 477.343 48.7007 468.036 44.6943ZM609.964 44.6943C600.657 48.7009 591.486 52.9649 582.46 57.4736C591.792 62.4329 600.964 67.6541 609.963 73.1309C618.962 67.6539 628.134 62.433 637.467 57.4736C628.441 52.965 619.271 48.7008 609.964 44.6943ZM680.927 44.4053C671.388 48.4958 661.992 52.8551 652.748 57.4727C662.08 62.432 671.252 67.654 680.251 73.1309C689.461 67.5258 698.851 62.1868 708.409 57.124C699.39 52.6352 690.226 48.3931 680.927 44.4053ZM432.216 30.7832C423.374 33.8557 414.637 37.1522 406.013 40.667C415.106 44.7017 424.069 48.9779 432.892 53.4883C441.505 49.0849 450.251 44.9034 459.123 40.9531C450.27 37.3306 441.298 33.9393 432.216 30.7832ZM503.855 30.7832C494.773 33.9393 485.801 37.3306 476.948 40.9531C485.82 44.9033 494.566 49.0849 503.18 53.4883C512.003 48.9779 520.965 44.7017 530.059 40.667C521.434 37.1523 512.697 33.8557 503.855 30.7832ZM574.144 30.7832C565.302 33.8557 556.565 37.1513 547.94 40.666C557.034 44.7008 565.996 48.9778 574.819 53.4883C583.433 49.0848 592.179 44.9034 601.051 40.9531C592.198 37.3306 583.226 33.9393 574.144 30.7832ZM645.783 30.7832C636.701 33.9393 627.729 37.3306 618.876 40.9531C627.748 44.9033 636.494 49.0849 645.107 53.4883C653.93 48.978 662.892 44.7016 671.985 40.667C663.361 37.1524 654.625 33.8556 645.783 30.7832ZM370.396 33.8047C360.957 36.9533 351.636 40.3591 342.44 44.0137C348.893 46.9932 355.278 50.0946 361.591 53.3164C370.304 48.8695 379.154 44.6502 388.131 40.667C382.27 38.2785 376.358 35.9899 370.396 33.8047ZM707.602 33.8047C701.64 35.9898 695.728 38.2787 689.867 40.667C698.729 44.5988 707.465 48.7608 716.07 53.1445C722.375 49.9324 728.751 46.8397 735.195 43.8691C726.117 40.269 716.917 36.912 707.602 33.8047ZM468.036 19.7295C459.591 22.0133 451.227 24.4977 442.952 27.1777C451.414 30.2765 459.777 33.58 468.036 37.0811C476.295 33.5801 484.658 30.2764 493.119 27.1777C484.844 24.4978 476.481 22.0133 468.036 19.7295ZM609.963 19.7295C601.518 22.0133 593.155 24.4978 584.88 27.1777C593.342 30.2765 601.705 33.58 609.964 37.0811C618.222 33.5802 626.585 30.2763 635.046 27.1777C626.771 24.4978 618.408 22.0133 609.963 19.7295ZM407.603 22.8936C398.681 25.158 389.85 27.647 381.114 30.3555C386.475 32.4208 391.795 34.5664 397.072 36.7949C405.111 33.4 413.249 30.1919 421.479 27.1777C416.881 25.6884 412.255 24.2613 407.603 22.8936ZM539 19.9141C530.784 22.1474 522.646 24.5693 514.592 27.1777C522.823 30.192 530.961 33.3999 539 36.7949C547.039 33.4 555.176 30.1919 563.407 27.1777C555.353 24.5694 547.216 22.1473 539 19.9141ZM670.397 22.8936C665.745 24.2614 661.118 25.6883 656.52 27.1777C664.75 30.1919 672.888 33.4 680.927 36.7949C686.204 34.5664 691.524 32.4208 696.885 30.3555C688.15 27.6471 679.319 25.1579 670.397 22.8936ZM574.819 11.4922C567.299 12.9889 559.834 14.6411 552.431 16.4482C559.734 18.6095 566.972 20.921 574.144 23.377C581.514 20.8528 588.956 18.4823 596.465 16.2695C589.305 14.5327 582.088 12.9388 574.819 11.4922ZM631.06 14.4863C628.52 15.0631 625.987 15.6569 623.462 16.2695C630.971 18.4823 638.413 20.8528 645.783 23.377C649.499 22.1042 653.233 20.8688 656.985 19.6748C648.42 17.737 639.776 16.0056 631.06 14.4863ZM446.94 14.4863C438.224 16.0057 429.579 17.737 421.014 19.6748C424.766 20.8689 428.5 22.1032 432.217 23.376C439.587 20.852 447.028 18.4821 454.537 16.2695C452.012 15.657 449.479 15.063 446.94 14.4863ZM503.18 11.4922C495.911 12.9388 488.694 14.5327 481.534 16.2695C489.043 18.4822 496.485 20.8519 503.855 23.376C511.026 20.9202 518.265 18.6094 525.567 16.4482C518.164 14.6412 510.7 12.9888 503.18 11.4922ZM539.001 6.55566C536.592 6.55566 534.186 6.57161 531.784 6.60352C528.256 7.10872 524.74 7.64729 521.234 8.2207C527.194 9.60358 533.117 11.0852 539 12.6621C544.883 11.0853 550.805 9.60352 556.765 8.2207C553.259 7.64724 549.742 7.10876 546.214 6.60352C543.813 6.57164 541.409 6.55567 539.001 6.55566ZM477.35 10.0869C473.198 10.5657 469.06 11.0913 464.938 11.665C465.972 11.9342 467.004 12.2063 468.036 12.4814C471.13 11.6565 474.234 10.8585 477.35 10.0869ZM600.647 10.0869C603.763 10.8586 606.869 11.6563 609.963 12.4814C610.995 12.2063 612.027 11.9342 613.062 11.665C608.938 11.0913 604.8 10.5657 600.647 10.0869Z" />
</svg>
