<svg viewBox="0 0 1080 1080" xmlns="http://www.w3.org/2000/svg">
<path fill-rule="evenodd" clip-rule="evenodd" d="M540 0C838.234 0 1080 241.766 1080 540C1080 838.234 838.234 1080 540 1080C241.766 1080 0 838.234 0 540C5.1569e-06 241.766 241.766 5.15422e-06 540 0ZM537.697 1068.7C538.464 1068.8 539.232 1068.9 540 1069C540.768 1068.9 541.535 1068.8 542.302 1068.7C541.534 1068.5 540.767 1068.3 540 1068.09C539.233 1068.3 538.466 1068.5 537.697 1068.7ZM504.855 1057.44C501.29 1058.66 497.708 1059.83 494.109 1060.98C497.455 1061.71 500.811 1062.42 504.18 1063.09C507.816 1062.37 511.439 1061.6 515.048 1060.8C511.636 1059.71 508.238 1058.59 504.855 1057.44ZM575.145 1057.44C571.761 1058.59 568.364 1059.71 564.951 1060.8C568.56 1061.6 572.183 1062.37 575.819 1063.09C579.188 1062.42 582.544 1061.71 585.89 1060.98C582.291 1059.83 578.71 1058.65 575.145 1057.44ZM430.963 1058.2C434.732 1058.99 438.517 1059.74 442.315 1060.45C439.271 1059.47 436.237 1058.47 433.216 1057.44C432.465 1057.7 431.715 1057.95 430.963 1058.2ZM646.783 1057.44C643.762 1058.47 640.729 1059.47 637.685 1060.45C641.483 1059.74 645.266 1058.99 649.035 1058.2C648.284 1057.95 647.533 1057.7 646.783 1057.44ZM469.036 1043.82C463.783 1046.03 458.488 1048.17 453.153 1050.22C458.413 1051.83 463.708 1053.36 469.035 1054.81C474.363 1053.36 479.658 1051.83 484.918 1050.22C479.583 1048.17 474.289 1046.03 469.036 1043.82ZM610.964 1043.82C605.711 1046.03 600.416 1048.17 595.081 1050.22C600.341 1051.83 605.636 1053.36 610.964 1054.81C616.291 1053.36 621.586 1051.83 626.846 1050.22C621.511 1048.17 616.217 1046.03 610.964 1043.82ZM540 1044.11C534.968 1046.22 529.899 1048.26 524.792 1050.22C529.83 1051.76 534.9 1053.23 540 1054.62C545.1 1053.23 550.169 1051.76 555.206 1050.22C550.1 1048.26 545.031 1046.22 540 1044.11ZM398.072 1044.11C395.166 1045.33 392.247 1046.52 389.315 1047.69C394.871 1049.34 400.465 1050.89 406.095 1052.36C408.496 1051.66 410.891 1050.95 413.278 1050.22C408.172 1048.26 403.103 1046.22 398.072 1044.11ZM681.928 1044.11C676.897 1046.22 671.827 1048.26 666.721 1050.22C669.108 1050.95 671.502 1051.66 673.903 1052.36C679.534 1050.89 685.129 1049.34 690.685 1047.69C687.753 1046.52 684.834 1045.33 681.928 1044.11ZM433.892 1027.53C427.557 1030.74 421.152 1033.84 414.678 1036.81C420.803 1039.22 426.983 1041.51 433.216 1043.69C439.697 1041.42 446.122 1039.03 452.486 1036.53C446.223 1033.64 440.024 1030.64 433.892 1027.53ZM504.18 1027.53C498.047 1030.64 491.847 1033.64 485.584 1036.53C491.949 1039.03 498.374 1041.42 504.855 1043.69C511.088 1041.51 517.269 1039.22 523.394 1036.81C516.92 1033.84 510.515 1030.74 504.18 1027.53ZM575.819 1027.53C569.484 1030.74 563.079 1033.84 556.605 1036.81C562.73 1039.22 568.911 1041.51 575.144 1043.69C581.625 1041.42 588.05 1039.03 594.414 1036.53C588.151 1033.64 581.952 1030.64 575.819 1027.53ZM646.107 1027.53C639.975 1030.64 633.776 1033.64 627.513 1036.53C633.877 1039.03 640.302 1041.42 646.783 1043.69C653.016 1041.51 659.196 1039.22 665.321 1036.81C658.847 1033.84 652.442 1030.74 646.107 1027.53ZM362.591 1027.7C358.251 1029.9 353.879 1032.04 349.474 1034.13C356.062 1036.67 362.715 1039.08 369.428 1041.37C373.464 1039.89 377.477 1038.38 381.467 1036.81C375.108 1033.89 368.816 1030.85 362.591 1027.7ZM717.071 1027.87C710.957 1030.96 704.776 1033.95 698.532 1036.81C702.522 1038.38 706.535 1039.89 710.571 1041.37C717.158 1039.13 723.686 1036.76 730.153 1034.27C725.76 1032.19 721.399 1030.06 717.071 1027.87ZM398.41 1007.82C391.311 1012.12 384.108 1016.25 376.803 1020.23C383.809 1023.63 390.9 1026.88 398.072 1029.98C405.367 1026.83 412.578 1023.52 419.7 1020.06C412.504 1016.13 405.406 1012.05 398.41 1007.82ZM681.251 1008.02C674.364 1012.18 667.379 1016.2 660.299 1020.06C667.421 1023.52 674.632 1026.83 681.927 1029.98C688.978 1026.93 695.949 1023.74 702.839 1020.4C695.541 1016.44 688.344 1012.31 681.251 1008.02ZM539.999 1007.62C532.894 1011.92 525.683 1016.07 518.371 1020.06C525.493 1023.52 532.704 1026.83 539.999 1029.97C547.294 1026.83 554.505 1023.52 561.627 1020.06C554.315 1016.07 547.104 1011.92 539.999 1007.62ZM469.036 1008.02C462.15 1012.18 455.164 1016.2 448.084 1020.06C454.986 1023.41 461.972 1026.62 469.036 1029.68C476.101 1026.62 483.086 1023.41 489.988 1020.06C482.908 1016.2 475.923 1012.18 469.036 1008.02ZM610.963 1008.02C604.076 1012.18 597.091 1016.2 590.011 1020.06C596.913 1023.41 603.899 1026.62 610.964 1029.68C618.028 1026.62 625.013 1023.41 631.915 1020.06C624.835 1016.2 617.849 1012.18 610.963 1008.02ZM745.166 51.7773C740.509 53.8684 735.888 56.0237 731.303 58.2432C901.817 150.918 1017.56 331.604 1017.56 539.325C1017.56 747.045 901.817 927.73 731.303 1020.4C736.397 1022.87 741.536 1025.26 746.719 1027.57C936.406 947.043 1069.44 759.06 1069.45 540.001C1069.45 320.345 935.68 131.933 745.166 51.7773ZM334.484 51.9229C144.157 132.162 10.5557 320.479 10.5557 540.001C10.556 758.926 143.432 946.814 332.934 1027.42C338.126 1025.1 343.274 1022.71 348.378 1020.23C178.039 927.504 62.4366 746.915 62.4365 539.325C62.4365 331.734 178.038 151.143 348.378 58.417C343.783 56.1884 339.152 54.0224 334.484 51.9229ZM717.071 65.3965C709.155 69.5255 701.355 73.8476 693.678 78.3555C845.388 175.622 945.924 345.733 945.924 539.325C945.924 732.917 845.388 903.026 693.678 1000.29C701.355 1004.8 709.155 1009.12 717.071 1013.25C887.921 924.139 1004.56 745.355 1004.56 539.325C1004.56 333.294 887.921 154.508 717.071 65.3965ZM362.591 65.5742C191.925 154.745 75.4365 333.43 75.4365 539.325C75.4366 745.219 191.925 923.903 362.591 1013.07C370.512 1008.93 378.317 1004.6 385.999 1000.08C234.47 902.784 134.076 732.779 134.076 539.325C134.076 345.87 234.47 175.864 386 78.5635C378.318 74.0449 370.513 69.7133 362.591 65.5742ZM433.555 984.667C426.113 989.99 418.533 995.131 410.82 1000.08C418.393 1004.54 426.086 1008.81 433.892 1012.9C441.576 1008.87 449.151 1004.67 456.609 1000.29C448.785 995.277 441.1 990.064 433.555 984.667ZM504.856 984.425C497.203 989.908 489.405 995.201 481.464 1000.29C488.922 1004.67 496.496 1008.87 504.18 1012.9C512.107 1008.75 519.918 1004.41 527.605 999.876C519.887 994.912 512.302 989.759 504.856 984.425ZM575.144 984.425C567.697 989.76 560.113 994.913 552.395 999.877C560.081 1004.41 567.892 1008.75 575.819 1012.9C583.503 1008.87 591.077 1004.67 598.535 1000.29C590.595 995.201 582.797 989.908 575.144 984.425ZM646.106 984.908C638.67 990.219 631.097 995.351 623.39 1000.29C630.848 1004.67 638.423 1008.87 646.107 1012.9C653.792 1008.87 661.366 1004.67 668.825 1000.29C661.118 995.35 653.543 990.219 646.106 984.908ZM469.374 956.737C461.312 963.578 453.049 970.189 444.595 976.561C452.584 982.179 460.733 987.585 469.036 992.769C477.46 987.509 485.726 982.021 493.826 976.314C485.486 970.019 477.332 963.49 469.374 956.737ZM610.287 957.024C602.436 963.675 594.394 970.107 586.172 976.313C594.273 982.021 602.539 987.509 610.963 992.769C619.145 987.66 627.178 982.337 635.056 976.807C626.606 970.448 618.346 963.851 610.287 957.024ZM681.251 85.8789C673.069 90.9872 665.035 96.3099 657.157 101.841C789.836 201.686 875.636 360.485 875.636 539.325C875.636 718.164 789.836 876.961 657.157 976.807C665.035 982.338 673.069 987.66 681.251 992.769C832.377 898.416 932.924 730.613 932.924 539.325C932.924 348.036 832.377 180.232 681.251 85.8789ZM398.41 86.0908C247.473 180.483 147.076 348.179 147.076 539.325C147.076 730.47 247.473 898.165 398.41 992.557C406.596 987.437 414.634 982.103 422.515 976.561C290.022 876.701 204.364 718.017 204.364 539.325C204.364 360.632 290.021 201.947 422.515 102.087C414.634 96.5444 406.596 91.2101 398.41 86.0908ZM540 957.025C532.149 963.676 524.107 970.108 515.886 976.314C523.769 981.868 531.81 987.214 539.999 992.344C548.189 987.214 556.23 981.868 564.113 976.313C555.892 970.107 547.851 963.675 540 957.025ZM646.106 109.814C637.266 116.363 628.636 123.179 620.226 130.249C732.968 230.477 803.996 376.606 803.996 539.325C803.996 702.044 732.967 848.172 620.226 948.399C628.636 955.469 637.267 962.284 646.107 968.833C777.476 871.517 862.636 715.367 862.636 539.325C862.636 363.282 777.476 207.131 646.106 109.814ZM433.555 110.065C302.377 207.399 217.364 363.433 217.364 539.325C217.364 715.216 302.377 871.25 433.554 968.583C442.398 962.021 451.033 955.192 459.445 948.107C346.894 847.888 276.004 701.886 276.004 539.325C276.004 376.764 346.894 230.761 459.445 130.541C451.033 123.457 442.399 116.628 433.555 110.065ZM504.518 924.188C496.368 932.423 487.958 940.4 479.303 948.107C487.608 955.101 496.13 961.846 504.856 968.331C513.46 961.936 521.866 955.289 530.061 948.4C521.289 940.603 512.77 932.527 504.518 924.188ZM575.144 924.526C566.996 932.746 558.591 940.709 549.938 948.4C558.134 955.289 566.539 961.936 575.143 968.331C583.747 961.936 592.153 955.289 600.349 948.399C591.697 940.708 583.291 932.745 575.144 924.526ZM539.662 885.104C531.315 895.329 522.606 905.247 513.554 914.837C522.082 923.465 530.903 931.802 539.999 939.836C548.972 931.911 557.678 923.689 566.1 915.186C556.929 905.487 548.11 895.453 539.662 885.104ZM610.287 138.812C601.314 146.738 592.609 154.959 584.188 163.463C676.874 261.489 733.71 393.769 733.71 539.325C733.71 684.88 676.874 817.159 584.188 915.186C592.608 923.689 601.314 931.91 610.287 939.835C721.106 841.958 790.996 698.804 790.996 539.325C790.996 379.845 721.107 236.69 610.287 138.812ZM469.374 139.11C358.75 236.98 289.004 380.007 289.004 539.325C289.004 698.642 358.751 841.668 469.374 939.537C478.35 931.596 487.059 923.358 495.481 914.837C402.99 816.846 346.29 684.708 346.29 539.325C346.29 393.942 402.99 261.803 495.481 163.812C487.059 155.291 478.351 147.052 469.374 139.11ZM575.144 172.818C565.689 182.84 556.619 193.227 547.954 203.956C619.904 296.586 662.746 412.952 662.746 539.325C662.746 665.697 619.904 782.063 547.954 874.692C556.618 885.421 565.689 895.808 575.144 905.829C665.39 810.175 720.71 681.211 720.71 539.325C720.71 397.438 665.39 268.473 575.144 172.818ZM504.518 173.176C414.471 268.794 359.29 397.615 359.29 539.325C359.29 681.034 414.471 809.854 504.518 905.472C513.851 895.561 522.808 885.294 531.369 874.692C459.42 782.063 416.579 665.697 416.579 539.325C416.579 412.952 459.419 296.585 531.369 203.955C522.808 193.354 513.851 183.086 504.518 173.176ZM539.662 214.488C470.616 304.496 429.579 417.118 429.579 539.325C429.579 661.531 470.617 774.151 539.662 864.159C608.708 774.151 649.746 661.531 649.746 539.325C649.746 417.118 608.708 304.497 539.662 214.488ZM539.999 138.812C530.903 146.845 522.081 155.183 513.553 163.811C522.605 173.401 531.315 183.318 539.662 193.543C548.11 183.194 556.93 173.161 566.1 163.463C557.678 154.959 548.973 146.737 539.999 138.812ZM504.856 110.316C496.13 116.802 487.608 123.547 479.303 130.541C487.958 138.248 496.368 146.225 504.518 154.46C512.77 146.121 521.289 138.046 530.061 130.248C521.865 123.359 513.461 116.711 504.856 110.316ZM575.144 110.316C566.539 116.711 558.134 123.359 549.938 130.248C558.59 137.94 566.996 145.902 575.144 154.121C583.291 145.902 591.697 137.941 600.349 130.249C592.153 123.359 583.748 116.711 575.144 110.316ZM469.036 85.8789C460.733 91.0627 452.583 96.468 444.594 102.087C453.048 108.459 461.311 115.07 469.374 121.911C477.333 115.159 485.487 108.63 493.827 102.334C485.726 96.6268 477.46 91.1383 469.036 85.8789ZM539.999 86.3037C531.81 91.4337 523.769 96.7792 515.886 102.333C524.107 108.539 532.148 114.973 539.999 121.623C547.85 114.973 555.892 108.54 564.113 102.334C556.23 96.7799 548.189 91.4339 539.999 86.3037ZM610.963 85.8789C602.539 91.1383 594.273 96.6268 586.172 102.334C594.394 108.54 602.436 114.973 610.287 121.623C618.346 114.796 626.606 108.2 635.056 101.842C627.178 96.3109 619.145 90.9871 610.963 85.8789ZM504.18 65.751C496.496 69.7729 488.921 73.9762 481.463 78.3555C489.404 83.4467 497.203 88.7394 504.856 94.2227C512.302 88.888 519.887 83.7352 527.605 78.7715C519.918 74.242 512.107 69.9003 504.18 65.751ZM575.819 65.751C567.892 69.9003 560.081 74.242 552.394 78.7715C560.112 83.7353 567.697 88.8879 575.144 94.2227C582.797 88.7395 590.595 83.4465 598.536 78.3555C591.078 73.9762 583.504 69.7729 575.819 65.751ZM433.892 65.751C426.086 69.8366 418.393 74.1092 410.82 78.5635C418.533 83.5161 426.113 88.6576 433.555 93.9805C441.1 88.5836 448.786 83.3716 456.609 78.3555C449.151 73.976 441.576 69.773 433.892 65.751ZM646.107 65.751C638.423 69.7731 630.848 73.9759 623.389 78.3555C631.096 83.2969 638.67 88.4283 646.106 93.7393C653.543 88.4283 661.117 83.2969 668.824 78.3555C661.366 73.9762 653.792 69.7729 646.107 65.751ZM539.999 48.6729C532.704 51.8223 525.493 55.1299 518.371 58.5908C525.683 62.5775 532.894 66.7265 539.999 71.0322C547.104 66.7264 554.315 62.5775 561.627 58.5908C554.505 55.1299 547.294 51.8222 539.999 48.6729ZM398.072 48.6719C390.899 51.7685 383.809 55.0191 376.803 58.417C384.108 62.3935 391.311 66.5323 398.41 70.8271C405.406 66.5946 412.504 62.5143 419.7 58.5908C412.578 55.1299 405.367 51.8213 398.072 48.6719ZM469.036 48.9658C461.972 52.0273 454.986 55.2368 448.084 58.5908C455.164 62.4512 462.15 66.4643 469.036 70.624C475.923 66.4643 482.908 62.4512 489.988 58.5908C483.086 55.2368 476.101 52.0273 469.036 48.9658ZM610.964 48.9658C603.899 52.0275 596.913 55.2367 590.011 58.5908C597.091 62.4512 604.076 66.4643 610.963 70.624C617.849 66.4643 624.835 62.4512 631.915 58.5908C625.013 55.237 618.028 52.0272 610.964 48.9658ZM681.927 48.6719C674.632 51.8213 667.421 55.1298 660.299 58.5908C667.379 62.4511 674.365 66.4634 681.251 70.623C688.344 66.3388 695.541 62.2097 702.839 58.2432C695.949 54.9081 688.977 51.7158 681.927 48.6719ZM433.216 34.9609C426.983 37.1406 420.804 39.4332 414.679 41.835C421.152 44.8086 427.557 47.9062 433.892 51.1221C440.024 48.0088 446.223 45.0074 452.485 42.1211C446.121 39.6146 439.697 37.2274 433.216 34.9609ZM504.855 34.9609C498.374 37.2276 491.949 39.6134 485.584 42.1201C491.847 45.0067 498.047 48.0085 504.18 51.1221C510.515 47.9059 516.92 44.8078 523.394 41.834C517.269 39.4321 511.088 37.1407 504.855 34.9609ZM575.144 34.9609C568.911 37.1407 562.73 39.4321 556.605 41.834C563.079 44.8078 569.484 47.9059 575.819 51.1221C581.952 48.0086 588.151 45.0066 594.414 42.1201C588.05 39.6135 581.625 37.2275 575.144 34.9609ZM646.783 34.9609C640.302 37.2274 633.878 39.6145 627.514 42.1211C633.776 45.0074 639.975 48.0088 646.107 51.1221C652.442 47.9062 658.847 44.8086 665.32 41.835C659.195 39.4332 653.016 37.1406 646.783 34.9609ZM371.347 37.9854C364.516 40.2791 357.748 42.7079 351.045 45.2695C354.919 47.1191 358.767 49.0128 362.59 50.9502C368.815 47.7953 375.108 44.755 381.467 41.834C378.11 40.5177 374.736 39.2353 371.347 37.9854ZM708.652 37.9854C705.263 39.2353 701.889 40.5177 698.532 41.834C704.776 44.7021 710.957 47.6847 717.071 50.7783C720.882 48.8505 724.718 46.9666 728.579 45.126C721.999 42.617 715.355 40.2363 708.652 37.9854ZM469.035 23.8408C463.708 25.2903 458.413 26.8199 453.153 28.4287C458.488 30.4802 463.783 32.6129 469.036 34.8252C474.289 32.613 479.583 30.4801 484.918 28.4287C479.658 26.8198 474.363 25.2904 469.035 23.8408ZM610.964 23.8408C605.636 25.2903 600.341 26.8198 595.081 28.4287C600.416 30.4802 605.711 32.6129 610.964 34.8252C616.217 32.613 621.511 30.4801 626.846 28.4287C621.586 26.8199 616.291 25.2903 610.964 23.8408ZM540 24.0254C534.9 25.4201 529.831 26.8878 524.793 28.4287C529.899 30.3923 534.969 32.431 540 34.542C545.031 32.4311 550.1 30.3922 555.206 28.4287C550.169 26.8879 545.1 25.42 540 24.0254ZM408.543 27.0049C402.742 28.4869 396.98 30.0645 391.258 31.7363C393.537 32.6564 395.809 33.5912 398.072 34.541C403.103 32.4302 408.172 30.3922 413.278 28.4287C411.703 27.9469 410.124 27.4725 408.543 27.0049ZM671.455 27.0049C669.874 27.4724 668.296 27.947 666.721 28.4287C671.827 30.3923 676.897 32.4301 681.928 34.541C684.191 33.5912 686.463 32.6564 688.742 31.7363C683.019 30.0643 677.256 28.487 671.455 27.0049ZM504.18 15.5527C500.811 16.227 497.455 16.9336 494.109 17.6709C497.708 18.8126 501.29 19.9924 504.855 21.2061C508.238 20.0546 511.635 18.9333 515.048 17.8467C511.439 17.0453 507.816 16.2806 504.18 15.5527ZM575.819 15.5527C572.183 16.2807 568.56 17.0453 564.951 17.8467C568.364 18.9334 571.761 20.0546 575.145 21.2061C578.71 19.9925 582.291 18.8125 585.89 17.6709C582.544 16.9336 579.188 16.227 575.819 15.5527ZM539.999 10.5566L540.005 10.5557H539.994L539.999 10.5566Z" />
</svg>
