<?xml version="1.0" standalone="no"?>
<!DOCTYPE svg PUBLIC "-//W3C//DTD SVG 20010904//EN"
 "http://www.w3.org/TR/2001/REC-SVG-20010904/DTD/svg10.dtd">
<svg version="1.0" xmlns="http://www.w3.org/2000/svg"
 width="512.000000pt" height="512.000000pt" viewBox="0 0 512.000000 512.000000"
 preserveAspectRatio="xMidYMid meet">
<metadata>
Created by potrace 1.11, written by Peter Selinger 2001-2013
</metadata>
<g transform="translate(0.000000,512.000000) scale(0.100000,-0.100000)"
fill="#000000" stroke="none">
<path d="M0 2560 l0 -2560 2560 0 2560 0 0 2560 0 2560 -2560 0 -2560 0 0
-2560z m2791 2390 c619 -62 1201 -367 1596 -835 298 -353 484 -773 554 -1250
18 -118 18 -492 0 -610 -39 -267 -120 -533 -228 -754 -116 -234 -309 -500
-486 -668 -751 -712 -1836 -876 -2750 -414 -557 282 -988 778 -1186 1366 -94
278 -126 476 -126 775 0 299 32 497 126 775 93 275 250 552 442 780 390 463
977 772 1582 834 118 12 358 12 476 1z"/>
<path d="M2523 4908 c24 -7 50 -7 75 0 34 9 30 10 -38 10 -68 0 -72 -1 -37
-10z"/>
<path d="M2238 4903 c6 -2 18 -2 25 0 6 3 1 5 -13 5 -14 0 -19 -2 -12 -5z"/>
<path d="M2858 4903 c6 -2 18 -2 25 0 6 3 1 5 -13 5 -14 0 -19 -2 -12 -5z"/>
<path d="M2353 4893 c-34 -7 -28 -18 16 -31 30 -9 46 -9 76 1 22 8 34 17 28
20 -16 10 -93 16 -120 10z"/>
<path d="M2680 4893 c-8 -2 -22 -7 -30 -10 -10 -3 -1 -10 24 -19 31 -11 47
-12 77 -2 22 6 39 14 39 18 0 15 -78 24 -110 13z"/>
<path d="M2085 4883 c-45 -10 -51 -15 -27 -24 25 -10 114 9 106 23 -5 8 -44 9
-79 1z"/>
<path d="M2957 4884 c-11 -12 73 -34 101 -27 13 3 20 9 15 14 -12 11 -107 22
-116 13z"/>
<path d="M2175 4845 l-40 -13 30 -11 c17 -6 42 -16 56 -22 25 -10 29 -9 107
22 l27 11 -45 14 c-54 16 -82 16 -135 -1z"/>
<path d="M2495 4845 l-40 -12 40 -18 c50 -22 80 -22 130 0 l40 18 -45 13 c-53
16 -72 16 -125 -1z"/>
<path d="M2805 4845 l-40 -13 28 -11 c76 -31 81 -32 106 -22 14 6 40 16 56 22
l30 11 -45 14 c-54 16 -82 16 -135 -1z"/>
<path d="M1895 4835 l-40 -12 38 -16 c38 -17 39 -16 117 15 24 10 24 11 5 18
-28 12 -73 10 -120 -5z"/>
<path d="M3105 4840 c-19 -7 -19 -8 5 -18 78 -31 79 -32 117 -15 l38 16 -45
13 c-50 15 -85 17 -115 4z"/>
<path d="M2026 4794 c-22 -8 -41 -16 -44 -19 -2 -2 21 -16 51 -31 l56 -28 51
24 c27 13 50 27 50 30 0 10 -81 40 -105 39 -11 0 -38 -7 -59 -15z"/>
<path d="M2338 4793 c-21 -9 -38 -19 -38 -23 0 -3 23 -17 50 -30 l51 -24 57
28 57 29 -40 18 c-49 21 -88 22 -137 2z"/>
<path d="M2645 4791 l-40 -18 57 -29 57 -28 51 24 c27 13 50 27 50 30 0 11
-83 40 -110 39 -14 0 -43 -9 -65 -18z"/>
<path d="M2968 4793 c-21 -9 -38 -19 -38 -23 0 -3 23 -17 50 -30 l51 -24 57
29 57 28 -35 15 c-51 21 -100 23 -142 5z"/>
<path d="M1733 4782 c-24 -9 -43 -19 -43 -22 0 -3 20 -13 44 -23 l44 -18 54
27 53 27 -30 13 c-39 17 -71 16 -122 -4z"/>
<path d="M3265 4786 l-30 -13 53 -27 54 -27 44 18 c24 10 44 20 44 24 0 8 -92
39 -115 39 -11 -1 -33 -7 -50 -14z"/>
<path d="M1860 4724 l-54 -25 62 -35 c69 -38 66 -38 154 16 l31 18 -51 26
c-62 32 -72 32 -142 0z"/>
<path d="M2181 4725 c-30 -14 -52 -27 -50 -29 2 -1 29 -17 59 -34 l56 -31 59
33 59 34 -52 26 c-63 32 -64 32 -131 1z"/>
<path d="M2490 4724 l-54 -25 62 -35 62 -35 62 35 62 35 -54 25 c-30 14 -62
26 -70 26 -8 0 -40 -12 -70 -26z"/>
<path d="M2806 4723 l-50 -25 59 -34 59 -33 56 31 c30 17 57 33 59 34 6 5
-102 54 -119 53 -8 0 -37 -11 -64 -26z"/>
<path d="M3116 4724 l-49 -26 31 -18 c88 -54 85 -54 154 -16 l62 35 -57 26
c-70 31 -79 31 -141 -1z"/>
<path d="M1525 4692 c-261 -126 -523 -323 -720 -542 -318 -351 -519 -778 -591
-1255 -26 -167 -26 -503 0 -670 108 -711 507 -1316 1116 -1690 99 -61 285
-155 308 -155 7 0 31 9 54 21 l40 21 -80 48 c-267 161 -480 344 -663 570 -833
1031 -682 2534 339 3383 99 82 195 149 324 227 l80 48 -40 21 c-23 12 -47 21
-54 21 -7 0 -58 -22 -113 -48z"/>
<path d="M3426 4719 l-38 -21 80 -48 c267 -161 480 -344 663 -570 833 -1031
682 -2534 -339 -3383 -99 -82 -195 -149 -324 -227 l-80 -48 40 -21 c23 -12 47
-21 54 -21 23 0 209 94 308 155 609 374 1008 979 1116 1690 26 167 26 503 0
670 -108 711 -507 1316 -1116 1690 -105 64 -286 155 -310 154 -8 0 -32 -9 -54
-20z"/>
<path d="M1652 4613 c-177 -107 -316 -216 -467 -368 -389 -389 -607 -834 -687
-1400 -16 -116 -16 -454 0 -570 80 -565 299 -1012 687 -1400 171 -171 323
-288 527 -404 l57 -32 43 22 c97 49 96 45 18 98 -185 126 -389 313 -524 481
-274 343 -454 762 -518 1205 -17 118 -17 512 0 630 64 443 244 862 518 1205
135 168 339 355 524 481 67 46 69 48 47 62 -23 15 -104 57 -109 57 -2 0 -54
-30 -116 -67z"/>
<path d="M2028 4647 c-32 -18 -58 -35 -58 -38 0 -7 106 -79 116 -79 9 0 123
74 123 80 1 5 -113 70 -120 70 -2 -1 -30 -15 -61 -33z"/>
<path d="M2336 4646 l-59 -33 61 -42 c34 -22 63 -41 67 -41 9 0 115 72 115 79
0 6 -112 71 -121 71 -2 0 -31 -15 -63 -34z"/>
<path d="M2658 4647 c-32 -17 -58 -35 -58 -38 0 -7 106 -79 115 -79 4 0 33 19
67 41 l61 42 -59 33 c-32 19 -61 34 -64 34 -3 0 -31 -15 -62 -33z"/>
<path d="M2968 4647 c-32 -17 -58 -34 -57 -37 0 -6 114 -80 123 -80 10 0 116
72 116 79 0 5 -114 71 -122 71 -2 0 -29 -15 -60 -33z"/>
<path d="M3325 4668 c-11 -6 -39 -21 -63 -35 l-42 -24 69 -47 c186 -127 390
-314 525 -482 274 -343 454 -762 518 -1205 17 -118 17 -512 0 -630 -64 -443
-244 -862 -518 -1205 -135 -168 -339 -355 -524 -481 -78 -53 -79 -49 18 -98
l43 -22 57 32 c204 116 356 233 527 404 388 388 607 835 687 1400 16 116 16
454 0 570 -64 452 -209 807 -476 1165 -95 128 -327 358 -458 455 -95 71 -323
216 -338 215 -3 0 -14 -6 -25 -12z"/>
<path d="M1845 4534 c-561 -391 -918 -965 -1022 -1644 -24 -159 -24 -501 0
-660 104 -683 475 -1274 1034 -1652 l74 -49 65 42 c36 23 63 43 62 44 -2 2
-39 31 -83 66 -102 80 -271 249 -359 358 -715 892 -715 2150 0 3042 87 107
257 278 357 357 43 34 78 64 78 68 1 7 -112 84 -121 84 -3 -1 -41 -26 -85 -56z"/>
<path d="M2177 4549 c-31 -22 -55 -44 -53 -48 3 -4 31 -28 64 -53 l59 -47 62
50 c34 28 59 55 55 60 -8 13 -110 79 -121 78 -4 0 -34 -18 -66 -40z"/>
<path d="M2500 4552 c-30 -21 -55 -42 -54 -47 0 -6 26 -30 57 -54 l57 -44 57
44 c31 24 57 48 57 54 1 8 -102 84 -114 84 -3 0 -30 -17 -60 -37z"/>
<path d="M2814 4555 c-29 -18 -55 -38 -58 -44 -4 -5 21 -32 55 -60 l62 -50 59
47 c33 25 61 49 64 53 5 8 -109 89 -123 88 -4 0 -31 -15 -59 -34z"/>
<path d="M3127 4551 c-32 -21 -58 -42 -58 -45 0 -4 35 -34 78 -68 100 -79 270
-250 357 -357 715 -892 715 -2150 0 -3042 -88 -109 -257 -278 -359 -358 -44
-35 -81 -64 -83 -66 -1 -1 26 -21 62 -44 l65 -42 74 49 c559 378 930 969 1034
1652 24 159 24 501 0 660 -104 682 -475 1274 -1033 1651 -40 27 -74 49 -76 49
-2 0 -29 -18 -61 -39z"/>
<path d="M1975 4396 c-460 -383 -747 -896 -842 -1506 -24 -160 -24 -500 0
-660 68 -436 236 -828 495 -1154 83 -105 254 -278 360 -364 105 -85 99 -84
184 -12 l45 39 -112 113 c-311 315 -523 687 -630 1102 -58 225 -70 331 -70
606 0 275 12 381 70 606 64 251 172 495 313 709 105 161 184 258 317 392 l111
113 -25 23 c-38 35 -97 77 -107 77 -5 0 -54 -38 -109 -84z"/>
<path d="M2333 4430 l-62 -50 65 -61 64 -62 62 59 c35 32 64 62 66 65 4 8
-109 99 -123 99 -6 0 -38 -22 -72 -50z"/>
<path d="M2647 4434 c-32 -26 -57 -49 -55 -53 2 -3 31 -33 66 -65 l62 -59 64
62 65 61 -62 50 c-34 28 -66 50 -72 50 -5 0 -36 -21 -68 -46z"/>
<path d="M2990 4453 c-19 -14 -47 -37 -61 -50 l-25 -23 111 -113 c311 -314
524 -686 630 -1101 58 -225 70 -331 70 -606 0 -275 -12 -381 -70 -606 -64
-251 -172 -495 -313 -709 -105 -161 -184 -258 -317 -393 l-112 -113 45 -39
c85 -72 79 -73 184 12 106 86 277 259 360 364 259 326 427 718 495 1154 24
160 24 500 0 660 -43 271 -112 496 -223 719 -120 242 -246 422 -434 615 -101
103 -277 256 -296 256 -5 0 -25 -12 -44 -27z"/>
<path d="M2114 4227 c-365 -374 -581 -807 -661 -1327 -13 -85 -18 -174 -18
-340 0 -318 40 -552 141 -824 120 -322 290 -590 538 -843 l128 -132 69 60 68
61 -66 76 c-304 349 -495 751 -576 1212 -18 107 -21 162 -21 390 0 228 3 283
21 390 81 461 272 863 576 1212 l66 76 -68 61 -69 60 -128 -132z"/>
<path d="M2493 4300 c-35 -33 -63 -62 -63 -66 0 -7 123 -152 130 -152 9 0 132
148 128 156 -4 9 -124 122 -129 122 -2 -1 -32 -27 -66 -60z"/>
<path d="M2808 4298 l-67 -60 66 -76 c304 -349 495 -751 576 -1212 18 -107 21
-162 21 -390 0 -228 -3 -283 -21 -390 -81 -461 -272 -863 -576 -1212 l-66 -76
68 -61 69 -60 128 132 c364 373 581 808 661 1327 13 85 18 174 18 340 0 318
-41 555 -141 825 -121 323 -293 593 -539 842 l-130 132 -67 -61z"/>
<path d="M2339 4143 c-238 -261 -431 -624 -524 -987 -57 -222 -70 -331 -70
-596 0 -265 13 -374 70 -596 94 -365 291 -736 528 -990 l55 -59 22 20 c12 11
44 46 72 77 l49 57 -46 60 c-235 309 -411 758 -454 1163 -14 125 -14 411 0
536 43 405 219 854 454 1163 l47 61 -29 32 c-66 73 -108 116 -114 116 -4 0
-31 -26 -60 -57z"/>
<path d="M2674 4158 c-21 -24 -52 -57 -67 -74 l-29 -32 47 -61 c235 -309 411
-758 454 -1163 14 -125 14 -411 0 -536 -43 -405 -219 -854 -454 -1163 l-46
-60 49 -57 c28 -31 60 -66 72 -77 l22 -20 55 59 c30 32 85 100 123 150 241
321 394 684 457 1086 25 162 25 538 0 700 -63 401 -216 766 -456 1085 -71 94
-168 205 -180 205 -4 0 -25 -19 -47 -42z"/>
<path d="M2509 3958 c-295 -412 -449 -890 -449 -1396 0 -344 66 -659 204 -974
66 -149 192 -363 276 -468 l20 -25 20 25 c84 105 210 319 276 468 138 315 204
630 204 974 0 445 -120 872 -348 1242 -65 106 -143 216 -152 216 -4 0 -27 -28
-51 -62z"/>
<path d="M2492 964 c-35 -41 -62 -78 -60 -82 2 -4 31 -34 66 -66 l62 -59 63
59 c34 32 63 62 65 66 4 8 -119 156 -128 156 -3 0 -33 -33 -68 -74z"/>
<path d="M2333 800 l-61 -60 56 -46 c31 -26 63 -49 70 -51 11 -5 115 67 128
88 4 8 -106 120 -125 126 -3 2 -34 -24 -68 -57z"/>
<path d="M2652 799 c-35 -32 -61 -63 -58 -68 13 -21 117 -93 128 -88 7 2 39
25 70 51 l56 46 -62 60 c-35 33 -65 60 -67 60 -2 -1 -32 -28 -67 -61z"/>
<path d="M2195 678 c-86 -68 -85 -61 -15 -108 l63 -43 31 18 c17 10 46 29 65
43 l34 26 -39 34 c-88 76 -83 75 -139 30z"/>
<path d="M2810 668 l-63 -52 31 -25 c17 -14 46 -34 65 -45 l35 -18 61 42 c34
22 59 44 57 49 -3 4 -31 28 -64 53 l-59 47 -63 -51z"/>
<path d="M2497 665 c-32 -25 -55 -50 -52 -56 4 -5 31 -25 61 -44 l54 -35 54
35 c30 19 57 39 61 44 5 9 -101 101 -115 101 -3 0 -31 -20 -63 -45z"/>
<path d="M2025 554 c-27 -19 -51 -38 -52 -42 -2 -4 24 -22 57 -40 l61 -33 59
33 c33 18 60 35 59 38 0 7 -115 80 -125 79 -5 0 -31 -16 -59 -35z"/>
<path d="M2337 548 l-59 -40 30 -18 c89 -54 87 -54 152 -18 33 18 60 35 60 39
0 8 -107 79 -117 78 -5 0 -34 -18 -66 -41z"/>
<path d="M2655 554 c-27 -19 -51 -38 -53 -42 -1 -4 25 -22 58 -40 65 -36 63
-36 152 18 l30 18 -60 41 c-34 23 -65 41 -69 40 -4 0 -30 -16 -58 -35z"/>
<path d="M2968 552 c-31 -20 -57 -39 -57 -42 -1 -3 26 -20 59 -38 l59 -33 61
33 c33 18 60 36 60 39 0 8 -107 79 -117 79 -5 0 -34 -17 -65 -38z"/>
<path d="M1865 455 l-59 -34 57 -26 c71 -31 76 -31 139 1 l52 26 -60 34 c-32
19 -61 34 -64 33 -3 0 -32 -16 -65 -34z"/>
<path d="M2185 455 l-59 -34 54 -25 c68 -32 69 -32 132 0 l51 26 -31 18 c-85
52 -82 51 -147 15z"/>
<path d="M2495 455 l-59 -34 54 -25 c30 -14 62 -26 70 -26 8 0 40 12 70 26
l54 25 -59 34 c-33 19 -62 34 -65 34 -3 0 -32 -15 -65 -34z"/>
<path d="M2815 455 l-59 -33 56 -28 c56 -27 57 -27 101 -10 82 31 84 37 19 73
l-58 32 -59 -34z"/>
<path d="M3126 456 l-60 -34 52 -26 c63 -32 68 -32 139 -1 l57 26 -62 34 c-34
19 -63 35 -65 35 -1 0 -29 -15 -61 -34z"/>
<path d="M1728 382 c-21 -10 -38 -19 -38 -23 0 -8 92 -39 115 -39 11 1 34 7
50 14 l30 13 -52 26 c-60 31 -56 30 -105 9z"/>
<path d="M2025 373 l-50 -26 30 -13 c57 -25 92 -27 139 -9 26 10 46 21 46 24
0 9 -87 51 -103 51 -6 -1 -34 -13 -62 -27z"/>
<path d="M2343 377 c-24 -11 -43 -24 -43 -28 0 -10 83 -39 110 -38 14 0 43 8
65 18 l40 18 -52 26 c-62 32 -66 32 -120 4z"/>
<path d="M2655 373 l-50 -26 40 -18 c22 -10 51 -18 65 -18 27 -1 110 28 110
38 0 9 -87 51 -103 51 -6 -1 -34 -13 -62 -27z"/>
<path d="M2973 377 c-24 -11 -43 -24 -43 -28 0 -3 20 -14 46 -24 47 -18 82
-16 139 9 l30 13 -52 26 c-62 32 -66 32 -120 4z"/>
<path d="M3285 373 l-50 -26 30 -13 c17 -7 39 -13 50 -14 23 0 115 31 115 39
0 6 -80 41 -90 41 -3 -1 -27 -13 -55 -27z"/>
<path d="M1890 313 l-35 -15 45 -14 c50 -15 85 -17 115 -5 18 7 16 10 -16 23
-59 26 -72 27 -109 11z"/>
<path d="M2193 311 c-23 -9 -44 -19 -47 -22 -4 -3 18 -12 48 -19 47 -11 63
-11 108 2 l53 15 -39 17 c-59 25 -77 26 -123 7z"/>
<path d="M2513 312 c-59 -24 -59 -27 0 -41 44 -11 60 -11 102 2 l50 14 -36 15
c-61 26 -73 27 -116 10z"/>
<path d="M2823 312 c-59 -24 -59 -27 1 -42 44 -10 63 -10 104 1 29 7 49 15 46
18 -6 6 -97 41 -104 40 -3 0 -24 -8 -47 -17z"/>
<path d="M3143 312 c-57 -24 -61 -30 -19 -38 23 -4 57 -1 89 8 l52 15 -39 17
c-21 9 -39 16 -40 15 0 0 -20 -8 -43 -17z"/>
<path d="M2056 261 c-25 -10 -12 -17 46 -26 65 -10 83 5 27 21 -50 15 -47 15
-73 5z"/>
<path d="M2363 258 c-18 -6 -33 -14 -33 -18 0 -12 69 -22 103 -14 50 10 53 17
16 30 -41 15 -45 15 -86 2z"/>
<path d="M2671 256 c-37 -13 -34 -20 16 -30 34 -8 103 2 103 14 0 6 -70 31
-81 29 -2 0 -20 -6 -38 -13z"/>
<path d="M2986 256 c-52 -16 -30 -30 32 -21 58 9 71 16 46 26 -25 10 -31 9
-78 -5z"/>
<path d="M2238 213 c6 -2 18 -2 25 0 6 3 1 5 -13 5 -14 0 -19 -2 -12 -5z"/>
<path d="M2510 210 c-17 -6 -2 -8 50 -8 52 0 67 2 50 8 -14 4 -36 8 -50 8 -14
0 -36 -4 -50 -8z"/>
<path d="M2858 213 c6 -2 18 -2 25 0 6 3 1 5 -13 5 -14 0 -19 -2 -12 -5z"/>
</g>
</svg>
