<svg><defs/><symbol id="arrow-diagonal" viewBox="0 0 12 12"><title>arrow diagonal</title><path d="M.71 10.773L9.813 1.67l-8.605-.007V.666h10.314V10.98l-1.008.001.008-8.607-9.107 9.106z" fill-rule="nonzero"/></symbol><symbol id="arrow-down" viewBox="0 0 16 16"><title>arrow down</title><path d="M8.5.5v12.876l6.089-6.08.704.704L8 15.293.707 8l.712-.713L7.5 13.379V.5z" fill-rule="nonzero"/></symbol><symbol id="arrow-up" viewBox="0 0 15 16"><title>arrow up</title><path d="M6.793 15.293V2.417L.704 8.497 0 7.793 7.293.5l7.293 7.293-.712.713-6.081-6.092v12.879z" fill-rule="nonzero"/></symbol><symbol id="close" viewBox="0 0 24 24">
  <title>close</title>
  <path fill="none" d="M0 0h24v24H0z"/>
  <path d="M19 6.41L17.59 5 12 10.59 6.41 5 5 6.41 10.59 12 5 17.59 6.41 19 12 13.41 17.59 19 19 17.59 13.41 12z"/>
</symbol><symbol id="filter" viewBox="0 0 24 24">
  <title>filter</title>
  <path fill="none" d="M0 0h24v24H0z"/>
  <path d="M10 18h4v-2h-4v2zM3 6v2h18V6H3zm3 7h12v-2H6v2z"/>
</symbol><symbol id="mode-dark" viewBox="0 0 12 12"><title>dark mode</title><path d="M3.28.65l.11-.054.339-.151.395-.146.226-.07.31-.079.217-.045.236-.04.173-.023.306-.028a6 6 0 0 1 6.404 5.761L12 6A6 6 0 1 1 0 6l.007-.287.02-.294c.017-.167.04-.331.069-.494l.033-.166.06-.259.028-.103.045-.157.084-.252a5.96 5.96 0 0 1 .124-.32l.066-.15.114-.238c.182-.356.398-.692.644-1.002l.239-.284.119-.128.178-.18.127-.12.258-.221.25-.193.19-.134.179-.116L3.1.746 3.28.65zM6 11a5 5 0 0 0 5-5H1a5 5 0 0 0 5 5z" fill-rule="evenodd"/></symbol><symbol id="mode-light" viewBox="0 0 12 12"><title>light mode</title><path d="M8.72 11.35l-.11.054-.339.151-.395.146-.226.07-.31.079-.217.045-.236.04-.173.023-.306.028A6 6 0 0 1 .004 6.225L0 6a6 6 0 1 1 12 0l-.007.287-.02.294a5.998 5.998 0 0 1-.069.494l-.033.166-.06.259-.028.103-.045.157-.084.252a5.96 5.96 0 0 1-.124.32l-.066.15-.114.238a6.006 6.006 0 0 1-.644 1.002l-.239.284-.119.128-.178.18-.127.12-.258.221-.25.193-.19.134-.179.116-.267.156-.18.096zM6 1a5 5 0 0 0-5 5h10a5 5 0 0 0-5-5z" fill-rule="evenodd"/></symbol><symbol id="search" viewBox="0 0 24 24">
  <title>search</title>
  <path fill="none" d="M0 0h24v24H0z"/>
  <path d="M15.5 14h-.79l-.28-.27A6.471 6.471 0 0016 9.5 6.5 6.5 0 109.5 16c1.61 0 3.09-.59 4.23-1.57l.27.28v.79l5 4.99L20.49 19l-4.99-5zm-6 0C7.01 14 5 11.99 5 9.5S7.01 5 9.5 5 14 7.01 14 9.5 11.99 14 9.5 14z"/>
</symbol></svg>
